<svg width="61" height="60" viewBox="0 0 61 60" fill="none" xmlns="http://www.w3.org/2000/svg">
<rect x="0.589844" y="0.5" width="59" height="59" rx="29.5" stroke="white"/>
<path d="M29.2038 35.0117C29.3588 35.1667 29.4362 35.3548 29.4362 35.5762C29.4362 35.7754 29.3588 35.9635 29.2038 36.1406L28.6394 36.6719C28.4844 36.849 28.2963 36.9375 28.0749 36.9375C27.8757 36.9375 27.6986 36.849 27.5437 36.6719L23.028 32.1895C22.8731 32.0345 22.7956 31.8464 22.7956 31.625C22.7956 31.4036 22.8731 31.2155 23.028 31.0605L27.5437 26.5781C27.6986 26.401 27.8757 26.3125 28.0749 26.3125C28.2963 26.3125 28.4844 26.401 28.6394 26.5781L29.2038 27.1094C29.3588 27.2865 29.4362 27.4857 29.4362 27.707C29.4362 27.9062 29.3588 28.0833 29.2038 28.2383L27.0456 30.4297H36.8737C37.0951 30.4297 37.2832 30.5072 37.4382 30.6621C37.5931 30.8171 37.6706 31.0052 37.6706 31.2266V32.0234C37.6706 32.2448 37.5931 32.4329 37.4382 32.5879C37.2832 32.7428 37.0951 32.8203 36.8737 32.8203H27.0456L29.2038 35.0117Z" fill="#FFC222"/>
</svg>
