<svg width="25" height="18" viewBox="0 0 25 18" fill="none" xmlns="http://www.w3.org/2000/svg">
<path d="M18.5648 11.0401C17.7115 11.0401 16.9915 11.3468 16.4048 11.9601C15.8181 12.5735 15.5248 13.2935 15.5248 14.1201C15.5248 14.9468 15.8181 15.6535 16.4048 16.2401C16.9915 16.8268 17.6981 17.1201 18.5248 17.1201C19.3515 17.1201 20.0581 16.8268 20.6448 16.2401C21.2315 15.6535 21.5248 14.9468 21.5248 14.1201C21.5248 13.2935 21.2315 12.5735 20.6448 11.9601C20.0581 11.3468 19.3648 11.0401 18.5648 11.0401ZM18.5648 15.6001C18.1381 15.6001 17.7781 15.4535 17.4848 15.1601C17.1915 14.8668 17.0448 14.5068 17.0448 14.0801C17.0448 13.6535 17.1915 13.2935 17.4848 13.0001C17.7781 12.7068 18.1248 12.5601 18.5248 12.5601C18.9248 12.5601 19.2715 12.7068 19.5648 13.0001C19.8581 13.2935 20.0048 13.6535 20.0048 14.0801C20.0048 14.5068 19.8581 14.8668 19.5648 15.1601C19.2715 15.4535 18.9381 15.6001 18.5648 15.6001ZM8.16478 11.0401C7.36479 11.0401 6.67145 11.3468 6.08478 11.9601C5.49812 12.5735 5.20478 13.2935 5.20478 14.1201C5.20478 14.9468 5.49812 15.6535 6.08478 16.2401C6.67145 16.8268 7.37812 17.1201 8.20478 17.1201C9.03145 17.1201 9.73812 16.8268 10.3248 16.2401C10.9115 15.6535 11.2048 14.9468 11.2048 14.1201C11.2048 13.2935 10.9115 12.5735 10.3248 11.9601C9.73812 11.3468 9.01812 11.0401 8.16478 11.0401ZM8.16478 15.6001C7.79145 15.6001 7.44479 15.4535 7.12478 15.1601C6.80478 14.8668 6.64478 14.5068 6.64478 14.0801C6.64478 13.6535 6.80478 13.2935 7.12478 13.0001C7.44479 12.7068 7.80478 12.5601 8.20478 12.5601C8.60478 12.5601 8.95145 12.7068 9.24479 13.0001C9.53812 13.2935 9.68478 13.6535 9.68478 14.0801C9.68478 14.5068 9.53812 14.8668 9.24479 15.1601C8.95145 15.4535 8.59145 15.6001 8.16478 15.6001ZM20.5648 2.40012C20.4048 2.13345 20.1915 2.00012 19.9248 2.00012H15.9248V3.52012H19.4448L21.5248 7.60012L22.8048 6.96012L20.5648 2.40012ZM10.5648 13.3601H16.2448V14.8801H10.5648V13.3601ZM5.92479 13.3601H3.28479C3.07145 13.3601 2.89812 13.4401 2.76479 13.6001C2.63145 13.7601 2.56479 13.9335 2.56479 14.1201C2.56479 14.3068 2.63145 14.4801 2.76479 14.6401C2.89812 14.8001 3.07145 14.8801 3.28479 14.8801H5.92479C6.13812 14.8801 6.31145 14.8001 6.44479 14.6401C6.57812 14.4801 6.64478 14.3068 6.64478 14.1201C6.64478 13.9335 6.57812 13.7601 6.44479 13.6001C6.31145 13.4401 6.13812 13.3601 5.92479 13.3601ZM24.2448 8.72012L22.7248 6.80012C22.6181 6.64012 22.4315 6.56012 22.1648 6.56012H16.6448V1.20012C16.6448 1.04012 16.5781 0.880117 16.4448 0.720118C16.3115 0.560118 16.1381 0.480118 15.9248 0.480118H3.28479C3.07145 0.480118 2.89812 0.560118 2.76479 0.720118C2.63145 0.880117 2.56479 1.05345 2.56479 1.24012C2.56479 1.42678 2.63145 1.60012 2.76479 1.76012C2.89812 1.92012 3.07145 2.00012 3.28479 2.00012H15.1248V7.28012C15.1248 7.49345 15.2048 7.68012 15.3648 7.84012C15.5248 8.00012 15.7115 8.08012 15.9248 8.08012H21.7648L22.8848 9.44012V13.3601H20.8048C20.5915 13.3601 20.4048 13.4401 20.2448 13.6001C20.0848 13.7601 20.0048 13.9335 20.0048 14.1201C20.0048 14.3068 20.0848 14.4801 20.2448 14.6401C20.4048 14.8001 20.5915 14.8801 20.8048 14.8801H23.6848C23.8448 14.8801 24.0048 14.8001 24.1648 14.6401C24.3248 14.4801 24.4048 14.2935 24.4048 14.0801V9.20012C24.4048 9.04012 24.3515 8.88012 24.2448 8.72012ZM5.84479 9.52012H2.40479C2.19145 9.52012 2.00479 9.60012 1.84479 9.76012C1.68479 9.92012 1.60479 10.1068 1.60479 10.3201C1.60479 10.5335 1.68479 10.7068 1.84479 10.8401C2.00479 10.9735 2.19145 11.0401 2.40479 11.0401H5.84479C6.05812 11.0401 6.24478 10.9735 6.40479 10.8401C6.56479 10.7068 6.64478 10.5335 6.64478 10.3201C6.64478 10.1068 6.56479 9.92012 6.40479 9.76012C6.24478 9.60012 6.05812 9.52012 5.84479 9.52012ZM7.60478 6.56012H1.12479C0.964785 6.56012 0.804785 6.62678 0.644785 6.76012C0.484785 6.89345 0.404785 7.06678 0.404785 7.28012C0.404785 7.49345 0.484785 7.68012 0.644785 7.84012C0.804785 8.00012 0.964785 8.08012 1.12479 8.08012H7.60478C7.81812 8.08012 8.00479 8.00012 8.16478 7.84012C8.32478 7.68012 8.40479 7.49345 8.40479 7.28012C8.40479 7.06678 8.32478 6.89345 8.16478 6.76012C8.00479 6.62678 7.81812 6.56012 7.60478 6.56012ZM8.88478 3.60012H2.40479C2.19145 3.60012 2.00479 3.66678 1.84479 3.80012C1.68479 3.93345 1.60479 4.10678 1.60479 4.32012C1.60479 4.53345 1.68479 4.72012 1.84479 4.88012C2.00479 5.04012 2.19145 5.12012 2.40479 5.12012H8.88478C9.04478 5.12012 9.20479 5.04012 9.36479 4.88012C9.52479 4.72012 9.60478 4.53345 9.60478 4.32012C9.60478 4.10678 9.52479 3.93345 9.36479 3.80012C9.20479 3.66678 9.04478 3.60012 8.88478 3.60012Z" fill="white"/>
</svg>
