<svg width="84" height="92" viewBox="0 0 84 92" fill="none" xmlns="http://www.w3.org/2000/svg">
<path d="M18.8598 90.58V82.66C13.3665 82.3934 9.23314 80.6334 6.45981 77.38C3.7398 74.0734 2.27314 69.0067 2.0598 62.18L14.2998 60.34C14.3531 63.1134 14.5931 65.3534 15.0198 67.06C15.4465 68.7667 16.0598 69.9934 16.8598 70.74C17.7131 71.4867 18.7265 71.86 19.8998 71.86C21.3931 71.86 22.3531 71.3534 22.7798 70.34C23.2598 69.3267 23.4998 68.26 23.4998 67.14C23.4998 64.4734 22.8598 62.2334 21.5798 60.42C20.3531 58.5534 18.6465 56.6867 16.4598 54.82L10.7798 49.94C9.17981 48.5 7.71314 47.0334 6.37981 45.54C5.0998 43.9934 4.0598 42.2334 3.2598 40.26C2.4598 38.2334 2.0598 35.8334 2.0598 33.06C2.0598 27.9934 3.4998 24.02 6.37981 21.14C9.31314 18.26 13.2331 16.6334 18.1398 16.26V8.66003H22.2198V16.18C25.3131 16.34 27.7931 17.06 29.6598 18.34C31.5265 19.5667 32.9131 21.1134 33.8198 22.98C34.7798 24.7934 35.4198 26.74 35.7398 28.82C36.1131 30.8467 36.3265 32.74 36.3798 34.5L23.9798 36.02C23.9265 34.1 23.7931 32.42 23.5798 30.98C23.4198 29.54 23.0465 28.4467 22.4598 27.7C21.9265 26.9 21.0465 26.5267 19.8198 26.58C18.4865 26.58 17.4998 27.14 16.8598 28.26C16.2198 29.38 15.8998 30.5 15.8998 31.62C15.8998 34.18 16.5398 36.26 17.8198 37.86C19.1531 39.4067 20.5931 40.8734 22.1398 42.26L27.5798 46.98C29.3931 48.6334 31.0465 50.3934 32.5398 52.26C34.0865 54.1267 35.3131 56.2067 36.2198 58.5C37.1265 60.7934 37.5798 63.4334 37.5798 66.42C37.5798 69.2467 36.9931 71.8334 35.8198 74.18C34.6465 76.5267 32.9665 78.4467 30.7798 79.94C28.5931 81.38 25.9798 82.26 22.9398 82.58V90.58H18.8598ZM61.1279 82.98C57.2346 82.98 53.9813 82.2067 51.3679 80.66C48.7546 79.06 46.7813 76.8734 45.4479 74.1C44.1146 71.3267 43.4479 68.1 43.4479 64.42V35.06C43.4479 31.2734 44.0613 27.9667 45.2879 25.14C46.5679 22.26 48.5146 20.02 51.1279 18.42C53.7413 16.82 57.0746 16.02 61.1279 16.02C65.1813 16.02 68.4879 16.82 71.0479 18.42C73.6613 20.02 75.5813 22.26 76.8079 25.14C78.0879 27.9667 78.7279 31.2734 78.7279 35.06V64.42C78.7279 68.0467 78.0613 71.2734 76.7279 74.1C75.3946 76.8734 73.4213 79.06 70.8079 80.66C68.1946 82.2067 64.9679 82.98 61.1279 82.98ZM61.1279 71.06C62.4079 71.06 63.3146 70.66 63.8479 69.86C64.4346 69.0067 64.7813 68.0467 64.8879 66.98C65.0479 65.86 65.1279 64.9 65.1279 64.1V35.38C65.1279 34.4734 65.0746 33.46 64.9679 32.34C64.8613 31.1667 64.5146 30.1534 63.9279 29.3C63.3946 28.3934 62.4613 27.94 61.1279 27.94C59.7946 27.94 58.8346 28.3934 58.2479 29.3C57.7146 30.1534 57.3946 31.1667 57.2879 32.34C57.1813 33.46 57.1279 34.4734 57.1279 35.38V64.1C57.1279 64.9 57.2079 65.86 57.3679 66.98C57.5279 68.0467 57.8746 69.0067 58.4079 69.86C58.9946 70.66 59.9013 71.06 61.1279 71.06Z" fill="#212121"/>
</svg>
