<svg width="15" height="15" viewBox="0 0 15 15" fill="none" xmlns="http://www.w3.org/2000/svg">
<path d="M6.71416 0.852448C6.87822 0.524323 7.14255 0.36026 7.50713 0.36026C7.87171 0.36026 8.13603 0.524323 8.3001 0.852448L10.0774 4.46182L14.0696 5.06339C14.4342 5.09984 14.6712 5.29125 14.7806 5.6376C14.8899 5.98396 14.817 6.28474 14.5618 6.53995L11.6634 9.35635L12.347 13.3485C12.4017 13.6949 12.2832 13.9683 11.9915 14.1689C11.6998 14.3876 11.3991 14.4149 11.0892 14.2509L7.50713 12.3915L3.9251 14.2509C3.6152 14.4332 3.31442 14.4149 3.02275 14.1962C2.73109 13.9774 2.6126 13.6949 2.66728 13.3485L3.35088 9.35635L0.452441 6.53995C0.197233 6.28474 0.124316 5.98396 0.233691 5.6376C0.343066 5.29125 0.580045 5.09984 0.944629 5.06339L4.93682 4.46182L6.71416 0.852448Z" fill="#FFC222"/>
</svg>
